<?xml version="1.0" encoding="utf-8"?>
<svg viewBox="0 0 1947 600" xmlns="http://www.w3.org/2000/svg" xmlns:bx="https://boxy-svg.com">
  <defs>
    <style bx:fonts="Adamina">@import url(https://fonts.googleapis.com/css2?family=Adamina%3Aital%2Cwght%400%2C400&amp;display=swap);</style>
  </defs>
  <text style="fill: rgb(51, 51, 51); font-family: Adamina; font-size: 389.6px; white-space: pre;" x="100.284" y="466.728">Assignaly</text>
  <path fill-rule="evenodd" clip-rule="evenodd" d="M 182.186 24.252 C 184.888 22.898 188.067 22.898 190.768 24.252 C 228.524 43.161 263.672 66.494 295.537 93.569 C 298.185 95.821 299.408 99.326 298.736 102.736 C 298.058 106.143 295.592 108.92 292.286 109.991 C 256.323 121.644 222.573 138.226 191.834 158.942 C 188.597 161.121 184.36 161.121 181.121 158.942 C 172.489 153.124 163.621 147.633 154.53 142.486 L 154.53 127.445 C 154.53 124.331 156.01 121.533 158.385 119.886 C 171.948 110.483 186.048 101.803 200.631 93.901 C 205.282 91.378 207.01 85.56 204.487 80.908 C 201.966 76.252 196.148 74.525 191.498 77.046 C 176.296 85.286 161.6 94.333 147.466 104.131 C 139.742 109.482 135.363 118.269 135.363 127.445 L 135.363 132.304 C 117.817 123.584 99.549 116.109 80.671 109.991 C 77.362 108.92 74.899 106.143 74.222 102.736 C 73.548 99.326 74.769 95.821 77.42 93.569 C 109.282 66.494 144.433 43.161 182.186 24.252 Z M 135.363 153.842 C 125.166 148.453 114.698 143.509 103.986 139.04 C 101.83 152.145 100.162 165.415 99.002 178.833 C 98.659 182.783 100.789 186.54 104.358 188.276 C 111.105 191.557 117.727 195.057 124.215 198.765 C 121.546 202.902 118.399 206.822 114.776 210.447 C 111.035 214.19 111.035 220.258 114.776 224 C 118.521 227.741 124.588 227.741 128.332 224 C 133.055 219.277 137.14 214.156 140.585 208.742 C 154.511 217.782 167.731 227.818 180.146 238.746 C 183.766 241.935 189.19 241.935 192.812 238.746 C 215.574 218.706 241.045 201.677 268.6 188.276 C 272.17 186.54 274.298 182.783 273.955 178.833 C 272.791 165.415 271.125 152.145 268.971 139.04 C 245.571 148.805 223.338 160.826 202.546 174.836 C 192.834 181.383 180.123 181.383 170.41 174.836 C 165.18 171.313 159.856 167.912 154.447 164.644 C 153.78 180.023 149.16 195.28 140.585 208.742 C 135.231 205.266 129.772 201.936 124.215 198.762 C 131.647 187.228 135.363 173.995 135.363 160.747 L 135.363 153.842 Z" style="fill: rgb(51, 51, 51);" transform="matrix(0.866025, -0.5, 0.5, 0.866025, -41.110192, 110.948984)"/>
</svg>